<?xml version="1.0" encoding="UTF-8" standalone="no"?>
<svg
   xmlns:svg="http://www.w3.org/2000/svg"
   xmlns="http://www.w3.org/2000/svg"
   xmlns:xlink="http://www.w3.org/1999/xlink"
   viewBox="0 0 735 336"
   height="336"
   width="735"
   id="vio-logo"
   version="1.1">
  <path
     id="logo-path"
     d="M 287,170.5 V 25 H 334.5 382 V 170.5 316 H 334.5 287 Z m 257.5,144.43716 c -33.76491,-3.33559 -64.23269,-17.79425 -88.44886,-41.97389 -21.53295,-21.50047 -35.24989,-47.908 -40.75641,-78.46327 -2.18389,-12.11828 -2.19457,-36.09794 -0.0214,-48 6.32975,-34.66645 23.91458,-65.462722 49.57426,-86.819286 27.44641,-22.843659 58.25814,-34.044255 93.65238,-34.044255 23.7983,0 42.38387,4.217643 63,14.296656 15.4818,7.568889 27.6332,16.211582 39.49245,28.089034 19.38454,19.414305 32.19696,42.113151 38.52703,68.255591 11.96277,49.40489 -2.45636,100.51675 -38.55621,136.67112 -24.41612,24.45301 -54.73881,38.64689 -89.86531,42.06545 -10.87345,1.05822 -15.23307,1.04558 -26.59796,-0.0772 z M 87.75,242.90873 34,170.89801 V 97.949006 25 h 109 109 l -0.0205,72.75 -0.0205,72.75 -54.72949,72.2259 C 167.12827,282.45015 142.275,314.94453 142,314.93563 c -0.275,-0.009 -24.6875,-32.42101 -54.25,-72.0269 z"
     style="fill:#ffffff" />
</svg>
